<svg width="50" height="43" viewBox="0 0 50 43" fill="none" xmlns="http://www.w3.org/2000/svg">
<path d="M22.468 3.64501C22.7116 4.03477 22.8761 4.4687 22.952 4.92202C23.0279 5.37533 23.0137 5.83916 22.9104 6.28702C22.807 6.73488 22.6165 7.15799 22.3496 7.53221C22.0827 7.90642 21.7448 8.22441 21.355 8.46801C17.093 11.1188 13.7082 14.9686 11.625 19.535C13.7316 19.3588 15.8423 19.8227 17.681 20.8657C19.5197 21.9088 21.0007 23.4826 21.9303 25.3812C22.8599 27.2798 23.1948 29.4148 22.8911 31.5068C22.5874 33.5989 21.6593 35.5505 20.2283 37.1065C18.7973 38.6624 16.9299 39.7501 14.8705 40.2274C12.8111 40.7047 10.6557 40.5492 8.68608 39.7813C6.71651 39.0135 5.02457 37.669 3.83163 35.9238C2.63869 34.1786 2.00031 32.114 2 30V29.9055C2.00274 29.6345 2.01441 29.3637 2.035 29.0935C2.0665 28.5685 2.1295 27.8335 2.252 26.9305C2.497 25.135 2.9765 22.6605 3.946 19.8815C5.878 14.3165 9.791 7.43901 17.645 2.53201C18.0348 2.28841 18.4687 2.12396 18.922 2.04806C19.3753 1.97215 19.8392 1.98628 20.287 2.08963C20.7349 2.19298 21.158 2.38353 21.5322 2.65041C21.9064 2.91728 22.2244 3.25525 22.468 3.64501ZM46.968 3.64501C47.2116 4.03477 47.3761 4.4687 47.452 4.92202C47.5279 5.37533 47.5137 5.83916 47.4104 6.28702C47.307 6.73488 47.1165 7.15799 46.8496 7.53221C46.5827 7.90642 46.2448 8.22441 45.855 8.46801C41.5928 11.1186 38.208 14.9685 36.125 19.535C38.2316 19.3588 40.3423 19.8227 42.181 20.8657C44.0197 21.9088 45.5007 23.4826 46.4303 25.3812C47.3599 27.2798 47.6948 29.4148 47.3911 31.5068C47.0874 33.5989 46.1593 35.5505 44.7283 37.1065C43.2973 38.6624 41.4299 39.7501 39.3705 40.2274C37.3111 40.7047 35.1557 40.5492 33.1861 39.7813C31.2165 39.0135 29.5246 37.669 28.3316 35.9238C27.1387 34.1786 26.5003 32.114 26.5 30V29.9055C26.5027 29.6345 26.5144 29.3637 26.535 29.0935C26.5665 28.5685 26.6295 27.8335 26.752 26.9305C26.997 25.135 27.4765 22.6605 28.446 19.8815C30.378 14.3165 34.291 7.43901 42.145 2.53201C42.5348 2.28841 42.9687 2.12396 43.422 2.04806C43.8753 1.97215 44.3392 1.98628 44.787 2.08963C45.2349 2.19298 45.658 2.38353 46.0322 2.65041C46.4064 2.91728 46.7244 3.25525 46.968 3.64501Z" fill="#111111"/>
<path d="M21.8831 9.31717L21.885 9.31601C22.3861 9.00281 22.8207 8.59397 23.1638 8.11283C23.5069 7.6317 23.7519 7.08769 23.8848 6.51188C24.0177 5.93606 24.0358 5.33971 23.9382 4.75688C23.8406 4.17404 23.6292 3.61613 23.316 3.11501C23.0028 2.61389 22.594 2.17936 22.1128 1.83624C21.6317 1.49311 21.0877 1.24812 20.5119 1.11524C19.9361 0.982359 19.3397 0.964195 18.7569 1.06179C18.174 1.15938 17.6161 1.37081 17.1151 1.68393C9.01785 6.74292 4.9866 13.8355 3.00164 19.5526C2.00558 22.4079 1.51304 24.9496 1.26118 26.7953L1.26108 26.7961C1.13564 27.7207 1.07034 28.4778 1.03728 29.0256C1.0154 29.3151 1.00298 29.6052 1.00005 29.8954H1V29.9055V30V30.0002C1.00034 32.3154 1.69952 34.5767 3.00607 36.4881C4.31262 38.3995 6.1657 39.872 8.32285 40.713C10.48 41.554 12.8408 41.7243 15.0963 41.2016C17.3518 40.6789 19.397 39.4875 20.9643 37.7834C22.5317 36.0793 23.5481 33.9418 23.8807 31.6505C24.2133 29.3592 23.8466 27.0209 22.8284 24.9415C21.8103 22.8621 20.1882 21.1384 18.1744 19.996C16.6567 19.1349 14.9698 18.6343 13.243 18.5225C15.2648 14.76 18.2405 11.5827 21.8831 9.31717ZM37.743 18.5225C39.7646 14.7599 42.7403 11.5826 46.3831 9.31719L46.385 9.31601C46.8861 9.00281 47.3206 8.59397 47.6638 8.11283C48.0069 7.6317 48.2519 7.0877 48.3848 6.51188C48.5176 5.93607 48.5358 5.33971 48.4382 4.75688C48.3406 4.17404 48.1292 3.61613 47.816 3.11501C47.5028 2.61389 47.094 2.17936 46.6128 1.83624C46.1317 1.49311 45.5877 1.24812 45.0119 1.11524C44.4361 0.982359 43.8397 0.964195 43.2569 1.06179C42.674 1.15938 42.1161 1.37081 41.615 1.68401C33.5177 6.74307 29.4865 13.8357 27.5016 19.5528C26.5056 22.408 26.013 24.9496 25.7612 26.7953L25.7611 26.7961C25.6356 27.7208 25.5703 28.4778 25.5373 29.0257C25.5154 29.3151 25.503 29.6052 25.5001 29.8954H25.5V29.9055V30V30.0002C25.5003 32.3154 26.1995 34.5767 27.5061 36.4881C28.8126 38.3995 30.6657 39.872 32.8229 40.713C34.98 41.554 37.3408 41.7243 39.5963 41.2016C41.8518 40.6789 43.897 39.4875 45.4643 37.7834C47.0317 36.0793 48.0481 33.9418 48.3807 31.6505C48.7133 29.3592 48.3466 27.0209 47.3284 24.9415C46.3103 22.8621 44.6883 21.1384 42.6744 19.996C41.1567 19.1349 39.4697 18.6343 37.743 18.5225Z" stroke="white" stroke-opacity="0.25" stroke-width="2"/>
</svg>
