<?xml version="1.0" encoding="UTF-8"?>
<!DOCTYPE svg PUBLIC "-//W3C//DTD SVG 1.1//EN" "http://www.w3.org/Graphics/SVG/1.1/DTD/svg11.dtd">
<svg xmlns="http://www.w3.org/2000/svg" version="1.1" width="256px" height="250px" style="shape-rendering:geometricPrecision; text-rendering:geometricPrecision; image-rendering:optimizeQuality; fill-rule:evenodd; clip-rule:evenodd" xmlns:xlink="http://www.w3.org/1999/xlink">
<g><path style="opacity:0.998" fill="#470137" d="M 35.5,-0.5 C 96.8333,-0.5 158.167,-0.5 219.5,-0.5C 238.5,4.5 250.5,16.5 255.5,35.5C 255.5,94.8333 255.5,154.167 255.5,213.5C 250.5,232.5 238.5,244.5 219.5,249.5C 158.167,249.5 96.8333,249.5 35.5,249.5C 16.5,244.5 4.5,232.5 -0.5,213.5C -0.5,154.167 -0.5,94.8333 -0.5,35.5C 4.5,16.5 16.5,4.5 35.5,-0.5 Z"/></g>
<g><path style="opacity:1" fill="#fd60f4" d="M 194.5,54.5 C 202.167,54.5 209.833,54.5 217.5,54.5C 217.548,93.4267 217.548,132.26 217.5,171C 200.244,177.852 182.577,179.185 164.5,175C 146.589,167.021 137.922,153.187 138.5,133.5C 140.566,107.434 154.566,92.7672 180.5,89.5C 185.167,89.5 189.833,89.5 194.5,89.5C 194.5,77.8333 194.5,66.1667 194.5,54.5 Z"/></g>
<g><path style="opacity:1" fill="#b73bab" d="M 194.5,54.5 C 194.5,66.1667 194.5,77.8333 194.5,89.5C 189.833,89.5 185.167,89.5 180.5,89.5C 184.634,88.5151 188.968,88.1818 193.5,88.5C 193.172,76.9877 193.505,65.6544 194.5,54.5 Z"/></g>
<g><path style="opacity:1" fill="#fc5ff3" d="M 37.5,63.5 C 46.5062,63.3336 55.5062,63.5002 64.5,64C 71.8729,77.9132 79.3729,91.7465 87,105.5C 94.1187,91.4271 101.619,77.5938 109.5,64C 117.853,63.1683 126.187,63.3349 134.5,64.5C 123.618,82.2126 112.952,100.046 102.5,118C 113.701,136.9 125.034,155.733 136.5,174.5C 126.851,175.665 117.184,175.832 107.5,175C 100.802,161.1 93.4687,147.6 85.5,134.5C 78.1667,147.833 70.8333,161.167 63.5,174.5C 54.5185,175.665 45.5185,175.832 36.5,175C 48.1452,156.875 59.1452,138.375 69.5,119.5C 58.8258,100.816 48.1592,82.1493 37.5,63.5 Z"/></g>
<g><path style="opacity:1" fill="#490139" d="M 182.5,108.5 C 185.909,108.249 189.242,108.583 192.5,109.5C 193.824,125.397 193.824,141.23 192.5,157C 170.816,159.178 160.983,149.345 163,127.5C 166.095,117.57 172.595,111.237 182.5,108.5 Z"/></g>
</svg>
