<?xml version="1.0" encoding="UTF-8"?>
<!DOCTYPE svg PUBLIC "-//W3C//DTD SVG 1.1//EN" "http://www.w3.org/Graphics/SVG/1.1/DTD/svg11.dtd">
<svg xmlns="http://www.w3.org/2000/svg" version="1.1" width="128px" height="125px" style="shape-rendering:geometricPrecision; text-rendering:geometricPrecision; image-rendering:optimizeQuality; fill-rule:evenodd; clip-rule:evenodd" xmlns:xlink="http://www.w3.org/1999/xlink">
<g><path style="opacity:0.995" fill="#00005b" d="M 15.5,-0.5 C 47.5,-0.5 79.5,-0.5 111.5,-0.5C 119.167,2.5 124.5,7.83333 127.5,15.5C 127.5,46.5 127.5,77.5 127.5,108.5C 124.5,116.167 119.167,121.5 111.5,124.5C 79.5,124.5 47.5,124.5 15.5,124.5C 7.83333,121.5 2.5,116.167 -0.5,108.5C -0.5,77.5 -0.5,46.5 -0.5,15.5C 2.5,7.83333 7.83333,2.5 15.5,-0.5 Z"/></g>
<g><path style="opacity:1" fill="#9595fb" d="M 33.5,31.5 C 38.544,31.1725 43.544,31.5059 48.5,32.5C 55.4422,50.661 61.7755,68.9944 67.5,87.5C 63.4454,87.8242 59.4454,87.4909 55.5,86.5C 54.1667,82.8333 52.8333,79.1667 51.5,75.5C 44.5316,74.503 37.5316,74.1697 30.5,74.5C 29.6679,78.8296 28.3346,82.9963 26.5,87C 22.8484,87.4986 19.1817,87.6653 15.5,87.5C 21.7038,68.8889 27.7038,50.2223 33.5,31.5 Z"/></g>
<g><path style="opacity:1" fill="#090662" d="M 40.5,42.5 C 43.4017,49.2051 45.7351,56.2051 47.5,63.5C 43.1667,63.5 38.8333,63.5 34.5,63.5C 36.347,56.4439 38.347,49.4439 40.5,42.5 Z"/></g>
<g><path style="opacity:1" fill="#9595fb" d="M 84.5,44.5 C 102.737,43.0692 110.737,51.4025 108.5,69.5C 99.8078,69.1686 91.1411,69.502 82.5,70.5C 83.2033,74.0367 85.2033,76.5367 88.5,78C 94.1875,78.9735 99.6875,78.4735 105,76.5C 105.824,79.8823 105.657,83.2156 104.5,86.5C 80.6141,93.1059 69.4475,84.1059 71,59.5C 73.2903,52.3827 77.7903,47.3827 84.5,44.5 Z"/></g>
<g><path style="opacity:1" fill="#050460" d="M 87.5,53.5 C 93.5825,52.9282 96.9158,55.5949 97.5,61.5C 92.5,61.5 87.5,61.5 82.5,61.5C 83.1514,58.197 84.818,55.5303 87.5,53.5 Z"/></g>
</svg>
