<?xml version="1.0" encoding="UTF-8"?>
<!DOCTYPE svg PUBLIC "-//W3C//DTD SVG 1.1//EN" "http://www.w3.org/Graphics/SVG/1.1/DTD/svg11.dtd">
<svg xmlns="http://www.w3.org/2000/svg" version="1.1" width="256px" height="384px" style="shape-rendering:geometricPrecision; text-rendering:geometricPrecision; image-rendering:optimizeQuality; fill-rule:evenodd; clip-rule:evenodd" xmlns:xlink="http://www.w3.org/1999/xlink">
<g><path style="opacity:0.995" fill="#f24e1d" d="M 51.5,-0.5 C 76.8333,-0.5 102.167,-0.5 127.5,-0.5C 127.5,42.1667 127.5,84.8333 127.5,127.5C 102.5,127.5 77.5,127.5 52.5,127.5C 23.8333,120.833 6.16667,103.167 -0.5,74.5C -0.5,67.1667 -0.5,59.8333 -0.5,52.5C 6.05134,24.2818 23.3847,6.61511 51.5,-0.5 Z"/></g>
<g><path style="opacity:0.995" fill="#ff7161" d="M 127.5,-0.5 C 152.833,-0.5 178.167,-0.5 203.5,-0.5C 231.615,6.61511 248.949,24.2818 255.5,52.5C 255.5,59.8333 255.5,67.1667 255.5,74.5C 248.833,103.167 231.167,120.833 202.5,127.5C 194.833,127.5 187.167,127.5 179.5,127.5C 162.167,127.5 144.833,127.5 127.5,127.5C 127.5,84.8333 127.5,42.1667 127.5,-0.5 Z"/></g>
<g><path style="opacity:0.997" fill="#a258fe" d="M 52.5,127.5 C 77.5,127.5 102.5,127.5 127.5,127.5C 127.5,144.833 127.5,162.167 127.5,179.5C 127.5,187.5 127.5,195.5 127.5,203.5C 127.5,220.833 127.5,238.167 127.5,255.5C 102.5,255.5 77.5,255.5 52.5,255.5C 23.8333,248.833 6.16667,231.167 -0.5,202.5C -0.5,195.167 -0.5,187.833 -0.5,180.5C 6.09768,151.902 23.7643,134.236 52.5,127.5 Z"/></g>
<g><path style="opacity:0.992" fill="#1abcfe" d="M 179.5,127.5 C 187.167,127.5 194.833,127.5 202.5,127.5C 231.236,134.236 248.902,151.902 255.5,180.5C 255.5,187.833 255.5,195.167 255.5,202.5C 245.231,240.662 220.231,258.162 180.5,255C 152.103,248.768 134.436,231.602 127.5,203.5C 127.5,195.5 127.5,187.5 127.5,179.5C 134.527,151.807 151.86,134.473 179.5,127.5 Z"/></g>
<g><path style="opacity:0.995" fill="#0acf83" d="M 52.5,255.5 C 77.5,255.5 102.5,255.5 127.5,255.5C 127.667,280.836 127.5,306.169 127,331.5C 120.204,359.797 102.704,377.13 74.5,383.5C 67.1667,383.5 59.8333,383.5 52.5,383.5C 23.8333,376.833 6.16667,359.167 -0.5,330.5C -0.5,323.167 -0.5,315.833 -0.5,308.5C 6.09768,279.902 23.7643,262.236 52.5,255.5 Z"/></g>
</svg>
