<?xml version="1.0" encoding="UTF-8"?>
<!DOCTYPE svg PUBLIC "-//W3C//DTD SVG 1.1//EN" "http://www.w3.org/Graphics/SVG/1.1/DTD/svg11.dtd">
<svg xmlns="http://www.w3.org/2000/svg" version="1.1" width="800px" height="780px" style="shape-rendering:geometricPrecision; text-rendering:geometricPrecision; image-rendering:optimizeQuality; fill-rule:evenodd; clip-rule:evenodd" xmlns:xlink="http://www.w3.org/1999/xlink">
<g><path style="opacity:0.999" fill="#001e36" d="M 124.5,-0.5 C 307.833,-0.5 491.167,-0.5 674.5,-0.5C 730.091,8.24579 768.925,38.5791 791,90.5C 794.808,101.73 797.641,113.063 799.5,124.5C 799.5,301.167 799.5,477.833 799.5,654.5C 790.265,711.245 758.932,750.412 705.5,772C 695.225,775.32 684.892,777.82 674.5,779.5C 491.167,779.5 307.833,779.5 124.5,779.5C 68.9086,770.754 30.0752,740.421 8,688.5C 4.19244,677.27 1.35911,665.937 -0.5,654.5C -0.5,477.833 -0.5,301.167 -0.5,124.5C 8.99774,64.8269 42.3311,24.9936 99.5,5C 107.877,2.72213 116.21,0.888795 124.5,-0.5 Z"/></g>
<g><path style="opacity:1" fill="#30a7fe" d="M 248.5,197.5 C 276.978,196.516 305.312,198.016 333.5,202C 368.895,208.589 396.395,226.755 416,256.5C 434.993,294.006 436.659,332.339 421,371.5C 402.826,406.312 374.326,427.479 335.5,435C 325.262,437.095 314.929,438.429 304.5,439C 286.836,439.5 269.17,439.667 251.5,439.5C 251.667,476.168 251.5,512.835 251,549.5C 227.333,550.833 203.667,550.833 180,549.5C 179.333,433.5 179.333,317.5 180,201.5C 180.5,201 181,200.5 181.5,200C 203.998,199.254 226.331,198.421 248.5,197.5 Z"/></g>
<g><path style="opacity:1" fill="#001e36" d="M 252.5,263.5 C 270.867,263.114 289.201,263.614 307.5,265C 347.308,271.485 363.808,294.652 357,334.5C 352.061,352.109 340.894,363.942 323.5,370C 316.612,372.139 309.612,373.805 302.5,375C 285.868,376.372 269.202,376.872 252.5,376.5C 252.5,338.833 252.5,301.167 252.5,263.5 Z"/></g>
<g><path style="opacity:1" fill="#30a7fd" d="M 554.5,280.5 C 575.593,280.048 596.593,281.214 617.5,284C 626.807,285.658 635.807,288.325 644.5,292C 645.701,292.903 646.535,294.069 647,295.5C 647.667,315.167 647.667,334.833 647,354.5C 644.847,356.444 642.347,356.944 639.5,356C 612.876,343.676 584.876,338.676 555.5,341C 550.864,341.879 546.531,343.545 542.5,346C 534.506,357.29 536.506,366.623 548.5,374C 567.786,383.646 587.452,392.313 607.5,400C 621.667,406.498 634.167,415.331 645,426.5C 658.592,443.867 663.592,463.534 660,485.5C 655.027,513.801 639.527,533.968 613.5,546C 585.137,556.86 555.804,560.527 525.5,557C 509.009,555.502 493.009,551.835 477.5,546C 474.088,544.545 470.921,542.712 468,540.5C 467.5,518.836 467.333,497.169 467.5,475.5C 475.135,477.813 482.468,480.98 489.5,485C 516.648,495.847 544.648,499.181 573.5,495C 585.142,492.367 589.975,485.2 588,473.5C 582.623,465.722 575.457,460.222 566.5,457C 540.048,448.608 515.715,436.275 493.5,420C 470.378,398.023 462.878,371.523 471,340.5C 479.989,316.177 496.489,299.01 520.5,289C 531.656,284.878 542.989,282.044 554.5,280.5 Z"/></g>
</svg>
