<?xml version="1.0" encoding="UTF-8"?>
<!DOCTYPE svg PUBLIC "-//W3C//DTD SVG 1.1//EN" "http://www.w3.org/Graphics/SVG/1.1/DTD/svg11.dtd">
<svg xmlns="http://www.w3.org/2000/svg" version="1.1" width="512px" height="512px" style="shape-rendering:geometricPrecision; text-rendering:geometricPrecision; image-rendering:optimizeQuality; fill-rule:evenodd; clip-rule:evenodd" xmlns:xlink="http://www.w3.org/1999/xlink">
<g><path style="opacity:0.997" fill="#7f7f7f" d="M 235.5,-0.5 C 236.167,-0.5 236.833,-0.5 237.5,-0.5C 237.833,30.5072 237.5,61.5072 236.5,92.5C 210.167,107.667 183.833,122.833 157.5,138C 153.325,141.845 153.992,144.845 159.5,147C 189.5,164.333 219.5,181.667 249.5,199C 254.167,202.333 258.833,202.333 263.5,199C 291.67,182.414 320.003,166.081 348.5,150C 352.306,148.014 355.639,145.514 358.5,142.5C 358.124,140.617 357.124,139.117 355.5,138C 329.167,122.833 302.833,107.667 276.5,92.5C 275.5,61.5072 275.167,30.5072 275.5,-0.5C 276.167,-0.5 276.833,-0.5 277.5,-0.5C 345.5,39.1667 413.5,78.8333 481.5,118.5C 406.699,162.404 331.699,206.071 256.5,249.5C 249.952,246.893 243.619,243.726 237.5,240C 167.94,199.726 98.6062,159.226 29.5,118.5C 98.1667,78.8333 166.833,39.1667 235.5,-0.5 Z"/></g>
<g><path style="opacity:0.987" fill="#4c4c4c" d="M 29.5,118.5 C 98.6062,159.226 167.94,199.726 237.5,240C 243.619,243.726 249.952,246.893 256.5,249.5C 255.503,336.763 255.169,424.096 255.5,511.5C 254.833,511.5 254.167,511.5 253.5,511.5C 187.727,472.774 121.727,434.274 55.5,396C 52.7644,394.638 50.4311,392.804 48.5,390.5C 74.6694,374.914 101.003,359.581 127.5,344.5C 154.5,360 181.5,375.5 208.5,391C 210.701,391.825 212.534,391.325 214,389.5C 214.667,351.167 214.667,312.833 214,274.5C 213.215,272.714 212.049,271.214 210.5,270C 179.336,252.252 148.336,234.252 117.5,216C 114.121,213.722 111.288,214.222 109,217.5C 108.667,249.167 108.333,280.833 108,312.5C 82.0798,328.212 55.9131,343.545 29.5,358.5C 28.168,278.334 28.168,198.334 29.5,118.5 Z"/></g>
<g><path style="opacity:0.994" fill="#000000" d="M 481.5,118.5 C 482.832,198.668 482.832,279.001 481.5,359.5C 455.087,344.545 428.92,329.212 403,313.5C 402.667,281.5 402.333,249.5 402,217.5C 401.3,215.968 400.134,214.968 398.5,214.5C 365.962,233.533 333.296,252.366 300.5,271C 298.951,272.214 297.785,273.714 297,275.5C 296.333,313.833 296.333,352.167 297,390.5C 298.426,393.861 300.593,394.361 303.5,392C 330.003,376.248 356.67,360.748 383.5,345.5C 410.365,360.426 436.698,376.093 462.5,392.5C 393.94,431.941 325.607,471.608 257.5,511.5C 256.833,511.5 256.167,511.5 255.5,511.5C 255.169,424.096 255.503,336.763 256.5,249.5C 331.699,206.071 406.699,162.404 481.5,118.5 Z"/></g>
</svg>
