<?xml version="1.0" encoding="UTF-8"?>
<!DOCTYPE svg PUBLIC "-//W3C//DTD SVG 1.1//EN" "http://www.w3.org/Graphics/SVG/1.1/DTD/svg11.dtd">
<svg xmlns="http://www.w3.org/2000/svg" version="1.1" width="512px" height="512px" style="shape-rendering:geometricPrecision; text-rendering:geometricPrecision; image-rendering:optimizeQuality; fill-rule:evenodd; clip-rule:evenodd" xmlns:xlink="http://www.w3.org/1999/xlink">
<g><path style="opacity:0.993" fill="#8892bd" d="M 511.5,242.5 C 511.5,250.5 511.5,258.5 511.5,266.5C 508.174,282.152 501.341,296.152 491,308.5C 471.241,329.47 448.074,345.637 421.5,357C 355.924,383.032 287.924,393.032 217.5,387C 163.852,383.589 113.185,369.589 65.5,345C 48.3119,335.492 33.1453,323.325 20,308.5C 9.65896,296.152 2.82563,282.152 -0.5,266.5C -0.5,258.5 -0.5,250.5 -0.5,242.5C 4.81526,220.991 15.8153,202.824 32.5,188C 61.2577,164.785 93.591,148.119 129.5,138C 185.562,122.61 242.562,117.61 300.5,123C 354.183,127.001 404.516,142.001 451.5,168C 471.148,179.416 487.314,194.582 500,213.5C 505.144,222.789 508.978,232.456 511.5,242.5 Z"/></g>
<g><path style="opacity:1" fill="#44485e" d="M 260.5,157.5 C 255.544,156.172 250.211,155.505 244.5,155.5C 238.755,155.522 233.089,155.855 227.5,156.5C 238.451,154.522 249.784,153.856 261.5,154.5C 261.737,155.791 261.404,156.791 260.5,157.5 Z"/></g>
<g><path style="opacity:1" fill="#232531" d="M 260.5,157.5 C 258.116,168.754 256.116,180.087 254.5,191.5C 268.537,191.158 282.537,191.658 296.5,193C 308.569,194.748 316.735,201.248 321,212.5C 321.667,215.833 321.667,219.167 321,222.5C 316.723,247.16 312.557,271.826 308.5,296.5C 296.814,296.832 285.148,296.499 273.5,295.5C 278.28,272.432 282.613,249.265 286.5,226C 286.779,221.111 284.445,218.611 279.5,218.5C 274.511,217.834 269.344,217.501 264,217.5C 258.454,217.505 253.288,218.172 248.5,219.5C 243.116,245.087 238.116,270.754 233.5,296.5C 222.116,297.144 211.116,296.477 200.5,294.5C 209.501,248.496 218.501,202.496 227.5,156.5C 233.089,155.855 238.755,155.522 244.5,155.5C 250.211,155.505 255.544,156.172 260.5,157.5 Z"/></g>
<g><path style="opacity:1" fill="#232531" d="M 99.5,191.5 C 122.836,191.333 146.169,191.5 169.5,192C 197.275,196.373 209.442,212.54 206,240.5C 201.359,270.139 184.526,288.639 155.5,296C 140.837,296.5 126.17,296.667 111.5,296.5C 109.074,308.818 106.74,321.152 104.5,333.5C 93.5,333.5 82.5,333.5 71.5,333.5C 80.4544,286.062 89.7877,238.728 99.5,191.5 Z"/></g>
<g><path style="opacity:1" fill="#232531" d="M 334.5,191.5 C 357.836,191.333 381.169,191.5 404.5,192C 432.272,196.364 444.439,212.531 441,240.5C 436.359,270.139 419.526,288.639 390.5,296C 375.822,296.167 361.155,296.667 346.5,297.5C 343.91,309.45 341.577,321.45 339.5,333.5C 328.5,333.5 317.5,333.5 306.5,333.5C 315.524,286.075 324.858,238.742 334.5,191.5 Z"/></g>
<g><path style="opacity:1" fill="#5e6583" d="M 279.5,218.5 C 269.085,218.192 258.751,218.525 248.5,219.5C 253.288,218.172 258.454,217.505 264,217.5C 269.344,217.501 274.511,217.834 279.5,218.5 Z"/></g>
<g><path style="opacity:1" fill="#8791bc" d="M 127.5,217.5 C 136.839,217.334 146.173,217.5 155.5,218C 164.65,219.318 169.984,224.485 171.5,233.5C 170.922,242.733 168.422,251.399 164,259.5C 158.375,266.048 151.209,269.548 142.5,270C 134.479,270.832 126.479,270.665 118.5,269.5C 121.716,252.207 124.716,234.873 127.5,217.5 Z"/></g>
<g><path style="opacity:1" fill="#8791bb" d="M 362.5,217.5 C 371.839,217.334 381.173,217.5 390.5,218C 404.828,221.481 409.661,230.315 405,244.5C 402.224,259.944 393.058,268.444 377.5,270C 369.507,270.5 361.507,270.666 353.5,270.5C 356.181,252.744 359.181,235.078 362.5,217.5 Z"/></g>
<g><path style="opacity:1" fill="#6a7294" d="M 200.5,294.5 C 211.116,296.477 222.116,297.144 233.5,296.5C 222.346,297.495 211.012,297.828 199.5,297.5C 199.263,296.209 199.596,295.209 200.5,294.5 Z"/></g>
</svg>
